<?xml version="1.0" encoding="iso-8859-1"?>
<svg fill="#000000" version="1.1" id="Layer_1" xmlns="http://www.w3.org/2000/svg" xmlns:xlink="http://www.w3.org/1999/xlink" 
	 viewBox="0 0 32 32" xml:space="preserve">
<path id="intercom_1_" d="M 15.5 25.5 C 15.5 25.434 15.934 25 16 25 C 16.066 25 16.5 25.434 16.5 25.5 C 16.5 25.566 16.066 26 16 26 C 15.934 26 15.5 25.566 15.5 25.5 Z M 17.061 22.439 C 16.844 22.223 16.342 22 16 22 C 15.658 22 15.156 22.223 14.939 22.439 C 14.723 22.656 14.5 23.158 14.5 23.5 C 14.5 23.842 14.723 24.344 14.939 24.561 C 15.156 24.777 15.658 25 16 25 C 16.342 25 16.844 24.777 17.061 24.561 C 17.277 24.344 17.5 23.842 17.5 23.5 C 17.5 23.158 17.277 22.656 17.061 22.439 Z M 17.061 26.439 C 16.844 26.223 16.342 26 16 26 C 15.658 26 15.156 26.223 14.939 26.439 C 14.723 26.656 14.5 27.158 14.5 27.5 C 14.5 27.842 14.723 28.344 14.939 28.561 C 15.156 28.777 15.658 29 16 29 C 16.342 29 16.844 28.777 17.061 28.561 C 17.277 28.344 17.5 27.842 17.5 27.5 C 17.5 27.158 17.277 26.656 17.061 26.439 Z M 19.061 24.439 C 18.844 24.223 18.342 24 18 24 C 17.658 24 17.156 24.223 16.939 24.439 C 16.723 24.656 16.5 25.158 16.5 25.5 C 16.5 25.842 16.723 26.344 16.939 26.561 C 17.156 26.777 17.658 27 18 27 C 18.342 27 18.844 26.777 19.061 26.561 C 19.277 26.344 19.5 25.842 19.5 25.5 C 19.5 25.158 19.277 24.656 19.061 24.439 Z M 15.061 24.439 C 14.844 24.223 14.342 24 14 24 C 13.658 24 13.156 24.223 12.939 24.439 C 12.723 24.656 12.5 25.158 12.5 25.5 C 12.5 25.842 12.723 26.344 12.939 26.561 C 13.156 26.777 13.658 27 14 27 C 14.342 27 14.844 26.777 15.061 26.561 C 15.277 26.344 15.5 25.842 15.5 25.5 C 15.5 25.158 15.277 24.656 15.061 24.439 Z M 28.36 30.36 L 3.64 30.36 L 3.64 1.64 L 28.36 1.64 Z M 2.36 0.36 L 2.36 31.64 L 29.64 31.64 L 29.64 0.36 Z M 24.5 19.36 C 24.192 19.36 24.104 19.318 23.893 19.107 C 23.682 18.896 23.64 18.808 23.64 18.5 C 23.64 18.192 23.682 18.104 23.893 17.893 C 24.104 17.682 24.192 17.64 24.5 17.64 C 24.808 17.64 24.896 17.681 25.107 17.892 C 25.319 18.104 25.36 18.192 25.36 18.5 C 25.36 18.808 25.319 18.896 25.107 19.108 C 24.896 19.319 24.808 19.36 24.5 19.36 Z M 26.013 16.987 C 25.681 16.655 25.019 16.36 24.5 16.36 C 23.981 16.36 23.319 16.655 22.987 16.987 C 22.655 17.319 22.36 17.981 22.36 18.5 C 22.36 19.019 22.655 19.681 22.987 20.013 C 23.319 20.345 23.981 20.64 24.5 20.64 C 25.019 20.64 25.681 20.345 26.013 20.013 C 26.345 19.681 26.64 19.019 26.64 18.5 C 26.64 17.981 26.345 17.319 26.013 16.987 Z M 11.36 19.36 L 6.64 19.36 L 6.64 17.64 L 11.36 17.64 Z M 5.36 16.36 L 5.36 20.64 L 12.64 20.64 L 12.64 16.36 Z M 25.36 13.36 L 6.64 13.36 L 6.64 4.64 L 25.36 4.64 Z M 5.36 3.36 L 5.36 14.64 L 26.64 14.64 L 26.64 3.36 Z"></path>
<rect id="_Transparent_Rectangle" style="fill:none;" width="32" height="32"/>
</svg>
