<svg xmlns="http://www.w3.org/2000/svg" xmlns:xlink="http://www.w3.org/1999/xlink" version="1.1" width="1000" height="1000" viewBox="0 0 1000 1000" xml:space="preserve">
<defs>
</defs>
<g transform="matrix(25.974 0 0 25.974 499.9995 499.9996)" id="414971">
<path style="stroke: none; stroke-width: 0.2; stroke-dasharray: none; stroke-linecap: butt; stroke-dashoffset: 0; stroke-linejoin: round; stroke-miterlimit: 4; is-custom-font: none; font-file-url: none; fill: rgb(0,0,0); fill-rule: nonzero; opacity: 1;" vector-effect="non-scaling-stroke" transform=" translate(-38.5, -39)" d="M 26 24 L 29 24 L 29 33 L 26 33 L 26 24 Z M 31 25 L 34 25 L 34 39 L 31 39 L 29 41 L 29 51 L 26 51 L 26 41 L 24 39 L 21 39 L 21 25 L 24 25 L 24 35 L 31 35 L 31 25 Z M 30 48 L 30 44 L 51 44 L 51 30 L 35 30 L 35 26 L 56 26 L 56 48 L 42 48 L 42 51 L 46 51 L 47 54 L 33 54 L 34 51 L 38 51 L 38 48 L 30 48 Z" stroke-linecap="round"/>
</g>
<g transform="matrix(1 0 0 1 596.0408 455.9629)" style="" id="102658">
		
<path xml:space="preserve" font-family="Lato" font-size="300" font-style="normal" font-weight="bold" style="stroke: none; stroke-width: 1; stroke-dasharray: none; stroke-linecap: butt; stroke-dashoffset: 0; stroke-linejoin: miter; stroke-miterlimit: 4; is-custom-font: none; font-file-url: none; fill: rgb(0,0,0); fill-rule: nonzero; opacity: 1; white-space: pre;" d="M3-122.66L3 94.24L-37.65 94.24L-37.65-0.56L-139.35-0.56L-139.35 94.24L-180 94.24L-180-122.66L-139.35-122.66L-139.35-29.36L-37.65-29.36L-37.65-122.66L3-122.66ZM28.50-122.66L199.65-122.66L199.65-89.51L134.40-89.51L134.40 94.24L94.05 94.24L94.05-89.51L28.50-89.51L28.50-122.66Z"/></g>
</svg>
