<svg id="solararray" xmlns="http://www.w3.org/2000/svg" xmlns:xlink="http://www.w3.org/1999/xlink" viewBox="0 0 800 600" shape-rendering="geometricPrecision" text-rendering="geometricPrecision"><rect id="solararray-u-p4" width="192" height="600" rx="0" ry="0" transform="translate(.000001 0)" stroke-width="0"/><rect id="solararray-u-p3" width="192" height="600" rx="0" ry="0" transform="translate(202.246833 0)" stroke-width="0"/><rect id="solararray-u-p2" width="192" height="600" rx="0" ry="0" transform="translate(405.894993 0)" stroke-width="0"/><rect id="solararray-u-p1" width="192" height="600" rx="0" ry="0" transform="translate(608 0)" stroke-width="0"/><g id="solararray-s-g1"><rect id="solararray-s-rect1" width="192" height="120" rx="0" ry="0" transform="translate(0 120)" fill="none" stroke="#fff"/><rect id="solararray-s-rect2" width="192" height="120" rx="0" ry="0" transform="translate(.000001 240)" fill="none" stroke="#fff"/><rect id="solararray-s-rect3" width="192" height="120" rx="0" ry="0" transform="translate(0 360)" fill="none" stroke="#fff"/><rect id="solararray-s-rect4" width="192" height="120" rx="0" ry="0" transform="translate(0 480)" fill="none" stroke="#fff"/><rect id="solararray-s-rect5" width="192" height="120" rx="0" ry="0" fill="none" stroke="#fff"/></g><g id="solararray-s-g2" transform="translate(202.246833 0)"><rect id="solararray-s-rect6" width="192" height="120" rx="0" ry="0" transform="translate(0 120)" fill="none" stroke="#fff"/><rect id="solararray-s-rect7" width="192" height="120" rx="0" ry="0" transform="translate(.000001 240)" fill="none" stroke="#fff"/><rect id="solararray-s-rect8" width="192" height="120" rx="0" ry="0" transform="translate(0 360)" fill="none" stroke="#fff"/><rect id="solararray-s-rect9" width="192" height="120" rx="0" ry="0" transform="translate(0 480)" fill="none" stroke="#fff"/><rect id="solararray-s-rect10" width="192" height="120" rx="0" ry="0" fill="none" stroke="#fff"/></g><g id="solararray-s-g3" transform="translate(405.894993 0)"><rect id="solararray-s-rect11" width="192" height="120" rx="0" ry="0" transform="translate(0 120)" fill="none" stroke="#fff"/><rect id="solararray-s-rect12" width="192" height="120" rx="0" ry="0" transform="translate(.000001 240)" fill="none" stroke="#fff"/><rect id="solararray-s-rect13" width="192" height="120" rx="0" ry="0" transform="translate(0 360)" fill="none" stroke="#fff"/><rect id="solararray-s-rect14" width="192" height="120" rx="0" ry="0" transform="translate(0 480)" fill="none" stroke="#fff"/><rect id="solararray-s-rect15" width="192" height="120" rx="0" ry="0" fill="none" stroke="#fff"/></g><g id="solararray-s-g4" transform="translate(608 0)"><rect id="solararray-s-rect16" width="192" height="120" rx="0" ry="0" transform="translate(0 120)" fill="none" stroke="#fff"/><rect id="solararray-s-rect17" width="192" height="120" rx="0" ry="0" transform="translate(.000001 240)" fill="none" stroke="#fff"/><rect id="solararray-s-rect18" width="192" height="120" rx="0" ry="0" transform="translate(0 360)" fill="none" stroke="#fff"/><rect id="solararray-s-rect19" width="192" height="120" rx="0" ry="0" transform="translate(0 480)" fill="none" stroke="#fff"/><rect id="solararray-s-rect20" width="192" height="120" rx="0" ry="0" fill="none" stroke="#fff"/></g><rect id="solararray-s-rect21" width="100" height="600" rx="0" ry="0" transform="translate(46.000001 0)" fill="none" stroke="#fff"/><rect id="solararray-s-rect22" width="100" height="600" rx="0" ry="0" transform="translate(248.246833 0)" fill="none" stroke="#fff"/><rect id="solararray-s-rect23" width="100" height="600" rx="0" ry="0" transform="translate(451.894993 0)" fill="none" stroke="#fff"/><rect id="solararray-s-rect24" width="100" height="600" rx="0" ry="0" transform="translate(654.000001 0)" fill="none" stroke="#fff"/></svg>
